<svg xmlns="http://www.w3.org/2000/svg" viewBox="0 0 1280 360" width="1280" height="360" role="img" aria-label="Resonate Agentic — the agentic audio protocol">
  <defs>
    <linearGradient id="bg" x1="0" y1="0" x2="1" y2="1">
      <stop offset="0" stop-color="#0a0e1a"/>
      <stop offset="1" stop-color="#11071f"/>
    </linearGradient>
    <linearGradient id="accent" x1="0" y1="0" x2="1" y2="0">
      <stop offset="0" stop-color="#22d3ee"/>
      <stop offset="0.55" stop-color="#818cf8"/>
      <stop offset="1" stop-color="#c084fc"/>
    </linearGradient>
    <radialGradient id="glow" cx="0.18" cy="0.5" r="0.6">
      <stop offset="0" stop-color="#22d3ee" stop-opacity="0.28"/>
      <stop offset="1" stop-color="#22d3ee" stop-opacity="0"/>
    </radialGradient>
  </defs>

  <rect width="1280" height="360" fill="url(#bg)"/>
  <rect width="1280" height="360" fill="url(#glow)"/>

  <!-- resonance rings emanating from the source node -->
  <g fill="none" stroke="url(#accent)" stroke-linecap="round">
    <circle cx="170" cy="180" r="34"  stroke-opacity="0.9"  stroke-width="2"/>
    <circle cx="170" cy="180" r="74"  stroke-opacity="0.55" stroke-width="2"/>
    <circle cx="170" cy="180" r="116" stroke-opacity="0.32" stroke-width="2"/>
    <circle cx="170" cy="180" r="160" stroke-opacity="0.16" stroke-width="2"/>
    <circle cx="170" cy="180" r="206" stroke-opacity="0.07" stroke-width="2"/>
  </g>
  <circle cx="170" cy="180" r="9" fill="#e8faff"/>

  <!-- agent nodes on the outer rings -->
  <g fill="#c084fc">
    <circle cx="244" cy="180" r="5"/>
    <circle cx="231" cy="124" r="5"/>
    <circle cx="231" cy="236" r="5"/>
    <circle cx="286" cy="142" r="4" fill="#818cf8"/>
    <circle cx="286" cy="218" r="4" fill="#818cf8"/>
  </g>
  <g stroke="#818cf8" stroke-opacity="0.45" stroke-width="1.4">
    <line x1="179" y1="180" x2="244" y2="180"/>
    <line x1="179" y1="180" x2="231" y2="124"/>
    <line x1="179" y1="180" x2="231" y2="236"/>
  </g>

  <!-- wordmark -->
  <text x="430" y="158" font-family="'Segoe UI',Helvetica,Arial,sans-serif" font-size="74" font-weight="800" letter-spacing="-1.5" fill="#f5f7ff">Resonate <tspan fill="url(#accent)">Agentic</tspan></text>
  <text x="434" y="204" font-family="'Segoe UI',Helvetica,Arial,sans-serif" font-size="19" font-weight="500" fill="#9fb0d0">The agentic audio protocol — AI-native music discovery &amp; commerce.</text>

  <!-- chips -->
  <g font-family="'Segoe UI',Helvetica,Arial,sans-serif" font-size="16" font-weight="600">
    <g>
      <rect x="434" y="244" width="168" height="34" rx="17" fill="#0e1626" stroke="#22d3ee" stroke-opacity="0.5"/>
      <text x="518" y="266" fill="#7fe9f7" text-anchor="middle">Google ADK 2.0</text>
    </g>
    <g>
      <rect x="614" y="244" width="118" height="34" rx="17" fill="#0e1626" stroke="#818cf8" stroke-opacity="0.5"/>
      <text x="673" y="266" fill="#aeb6ff" text-anchor="middle">x402 · USDC</text>
    </g>
    <g>
      <rect x="744" y="244" width="150" height="34" rx="17" fill="#0e1626" stroke="#c084fc" stroke-opacity="0.5"/>
      <text x="819" y="266" fill="#d7b4ff" text-anchor="middle">MCP · OpenAPI</text>
    </g>
    <g>
      <rect x="906" y="244" width="132" height="34" rx="17" fill="#0e1626" stroke="#fbbf24" stroke-opacity="0.5"/>
      <text x="972" y="266" fill="#fde68a" text-anchor="middle">runs anywhere</text>
    </g>
  </g>

  <!-- waveform baseline -->
  <g stroke="url(#accent)" stroke-width="3" stroke-linecap="round" stroke-opacity="0.85">
    <line x1="1100" y1="150" x2="1100" y2="210"/>
    <line x1="1120" y1="120" x2="1120" y2="240"/>
    <line x1="1140" y1="160" x2="1140" y2="200"/>
    <line x1="1160" y1="96"  x2="1160" y2="264"/>
    <line x1="1180" y1="138" x2="1180" y2="222"/>
    <line x1="1200" y1="170" x2="1200" y2="190"/>
    <line x1="1220" y1="110" x2="1220" y2="250"/>
    <line x1="1240" y1="150" x2="1240" y2="210"/>
    <line x1="1260" y1="128" x2="1260" y2="232"/>
  </g>
</svg>
